<mxfile host="app.diagrams.net" modified="2022-03-10T05:45:55.161Z" agent="5.0 (Windows NT 10.0; Win64; x64) AppleWebKit/537.36 (KHTML, like Gecko) Chrome/99.0.4844.51 Safari/537.36" etag="1KeVrW0nEcOG9HyJHP5D" version="17.1.0" type="github">
  <diagram id="UV5ZMSM5LCMfzNt8Aftr" name="Page-1">
    <mxGraphModel dx="1065" dy="409" grid="1" gridSize="10" guides="1" tooltips="1" connect="1" arrows="1" fold="1" page="1" pageScale="1" pageWidth="850" pageHeight="1100" math="0" shadow="0">
      <root>
        <mxCell id="0" />
        <mxCell id="1" parent="0" />
        <mxCell id="uvsU0Gj65J6yw6Juhzqe-1" value="用户" style="swimlane;whiteSpace=wrap;startSize=23;strokeColor=#000000;" vertex="1" parent="1">
          <mxGeometry x="444.5" y="128" width="275.5" height="570" as="geometry" />
        </mxCell>
        <mxCell id="uvsU0Gj65J6yw6Juhzqe-2" style="edgeStyle=orthogonalEdgeStyle;rounded=0;orthogonalLoop=1;jettySize=auto;html=1;exitX=0.5;exitY=1;exitDx=0;exitDy=0;entryX=0.5;entryY=0;entryDx=0;entryDy=0;" edge="1" parent="uvsU0Gj65J6yw6Juhzqe-1" source="uvsU0Gj65J6yw6Juhzqe-3" target="uvsU0Gj65J6yw6Juhzqe-5">
          <mxGeometry relative="1" as="geometry" />
        </mxCell>
        <mxCell id="uvsU0Gj65J6yw6Juhzqe-3" value="开始" style="rounded=1;whiteSpace=wrap;html=1;" vertex="1" parent="uvsU0Gj65J6yw6Juhzqe-1">
          <mxGeometry x="77.88" y="52" width="120" height="32" as="geometry" />
        </mxCell>
        <mxCell id="uvsU0Gj65J6yw6Juhzqe-4" style="edgeStyle=orthogonalEdgeStyle;rounded=0;orthogonalLoop=1;jettySize=auto;html=1;exitX=0.5;exitY=1;exitDx=0;exitDy=0;entryX=0.5;entryY=0;entryDx=0;entryDy=0;" edge="1" parent="uvsU0Gj65J6yw6Juhzqe-1" source="uvsU0Gj65J6yw6Juhzqe-5" target="uvsU0Gj65J6yw6Juhzqe-6">
          <mxGeometry relative="1" as="geometry" />
        </mxCell>
        <mxCell id="uvsU0Gj65J6yw6Juhzqe-5" value="登录" style="rounded=0;whiteSpace=wrap;html=1;" vertex="1" parent="uvsU0Gj65J6yw6Juhzqe-1">
          <mxGeometry x="77.63" y="102" width="120" height="28" as="geometry" />
        </mxCell>
        <mxCell id="uvsU0Gj65J6yw6Juhzqe-6" value="填写账号密码" style="rounded=0;whiteSpace=wrap;html=1;" vertex="1" parent="uvsU0Gj65J6yw6Juhzqe-1">
          <mxGeometry x="77.63" y="152" width="120" height="28" as="geometry" />
        </mxCell>
        <mxCell id="uvsU0Gj65J6yw6Juhzqe-7" value="网站系统" style="swimlane;whiteSpace=wrap;strokeColor=#000000;" vertex="1" parent="1">
          <mxGeometry x="720" y="128" width="280" height="570" as="geometry" />
        </mxCell>
        <mxCell id="uvsU0Gj65J6yw6Juhzqe-8" value="结束" style="rounded=1;whiteSpace=wrap;html=1;strokeColor=#000000;" vertex="1" parent="uvsU0Gj65J6yw6Juhzqe-7">
          <mxGeometry x="62.86" y="410" width="114.75" height="30" as="geometry" />
        </mxCell>
        <mxCell id="uvsU0Gj65J6yw6Juhzqe-9" style="edgeStyle=orthogonalEdgeStyle;rounded=0;orthogonalLoop=1;jettySize=auto;html=1;exitX=0.5;exitY=1;exitDx=0;exitDy=0;entryX=0.5;entryY=0;entryDx=0;entryDy=0;strokeColor=#000000;" edge="1" parent="uvsU0Gj65J6yw6Juhzqe-7" source="uvsU0Gj65J6yw6Juhzqe-11" target="uvsU0Gj65J6yw6Juhzqe-8">
          <mxGeometry relative="1" as="geometry">
            <mxPoint x="137.6300000000001" y="476" as="sourcePoint" />
          </mxGeometry>
        </mxCell>
        <mxCell id="uvsU0Gj65J6yw6Juhzqe-10" value="是否通过" style="rhombus;whiteSpace=wrap;html=1;strokeColor=#000000;" vertex="1" parent="uvsU0Gj65J6yw6Juhzqe-7">
          <mxGeometry x="80.24" y="252" width="80" height="42" as="geometry" />
        </mxCell>
        <mxCell id="uvsU0Gj65J6yw6Juhzqe-11" value="保存登录状态" style="rounded=0;whiteSpace=wrap;html=1;" vertex="1" parent="uvsU0Gj65J6yw6Juhzqe-7">
          <mxGeometry x="60.24" y="330" width="120" height="28" as="geometry" />
        </mxCell>
        <mxCell id="uvsU0Gj65J6yw6Juhzqe-12" value="是" style="edgeStyle=orthogonalEdgeStyle;rounded=0;orthogonalLoop=1;jettySize=auto;html=1;exitX=0.5;exitY=1;exitDx=0;exitDy=0;strokeColor=#000000;entryX=0.5;entryY=0;entryDx=0;entryDy=0;" edge="1" parent="uvsU0Gj65J6yw6Juhzqe-7" source="uvsU0Gj65J6yw6Juhzqe-10" target="uvsU0Gj65J6yw6Juhzqe-11">
          <mxGeometry x="0.2857" y="15" relative="1" as="geometry">
            <mxPoint x="120" y="333" as="targetPoint" />
            <mxPoint as="offset" />
          </mxGeometry>
        </mxCell>
        <mxCell id="uvsU0Gj65J6yw6Juhzqe-13" value="用户登录流程" style="rounded=0;whiteSpace=wrap;html=1;" vertex="1" parent="1">
          <mxGeometry x="444.5" y="110" width="555.5" height="18" as="geometry" />
        </mxCell>
        <mxCell id="uvsU0Gj65J6yw6Juhzqe-14" style="edgeStyle=orthogonalEdgeStyle;rounded=0;orthogonalLoop=1;jettySize=auto;html=1;exitX=0.5;exitY=1;exitDx=0;exitDy=0;" edge="1" parent="1" source="uvsU0Gj65J6yw6Juhzqe-6" target="uvsU0Gj65J6yw6Juhzqe-10">
          <mxGeometry relative="1" as="geometry">
            <Array as="points">
              <mxPoint x="582" y="370" />
              <mxPoint x="840" y="370" />
            </Array>
          </mxGeometry>
        </mxCell>
        <mxCell id="uvsU0Gj65J6yw6Juhzqe-16" value="提交" style="edgeLabel;html=1;align=center;verticalAlign=middle;resizable=0;points=[];" vertex="1" connectable="0" parent="uvsU0Gj65J6yw6Juhzqe-14">
          <mxGeometry x="-0.0895" relative="1" as="geometry">
            <mxPoint y="-14" as="offset" />
          </mxGeometry>
        </mxCell>
        <mxCell id="uvsU0Gj65J6yw6Juhzqe-15" value="否" style="edgeStyle=orthogonalEdgeStyle;rounded=0;orthogonalLoop=1;jettySize=auto;html=1;exitX=1;exitY=0.5;exitDx=0;exitDy=0;entryX=1;entryY=0.5;entryDx=0;entryDy=0;" edge="1" parent="1" source="uvsU0Gj65J6yw6Juhzqe-10" target="uvsU0Gj65J6yw6Juhzqe-6">
          <mxGeometry x="-0.8388" y="10" relative="1" as="geometry">
            <mxPoint as="offset" />
          </mxGeometry>
        </mxCell>
      </root>
    </mxGraphModel>
  </diagram>
</mxfile>
